<?xml version="1.0" encoding="UTF-8"?>
<!DOCTYPE svg PUBLIC "-//W3C//DTD SVG 1.1//EN" "http://www.w3.org/Graphics/SVG/1.1/DTD/svg11.dtd">
<svg xmlns="http://www.w3.org/2000/svg" version="1.1" width="45px" height="45px" style="shape-rendering:geometricPrecision; text-rendering:geometricPrecision; image-rendering:optimizeQuality; fill-rule:evenodd; clip-rule:evenodd" xmlns:xlink="http://www.w3.org/1999/xlink">
<g><path style="opacity:1" fill="#5071b8" d="M 39.5,10.5 C 40.038,12.1172 40.3713,13.7839 40.5,15.5C 38.9393,12.2651 36.6059,9.59841 33.5,7.5C 26.1372,2.23484 18.8038,2.23484 11.5,7.5C 10.1667,8.16667 9.16667,9.16667 8.5,10.5C 7.83333,11.5 7.16667,12.5 6.5,13.5C 5.83333,13.5 5.16667,13.5 4.5,13.5C 5.15394,9.68409 7.15394,6.85076 10.5,5C 21.8001,-1.03052 31.4667,0.802816 39.5,10.5 Z"/></g>
<g><path style="opacity:1" fill="#eaf5fd" d="M 33.5,7.5 C 33.0291,8.90082 32.3624,10.2342 31.5,11.5C 30.914,11.2907 30.414,10.9574 30,10.5C 24.4138,11.3207 18.9138,12.3207 13.5,13.5C 13.3862,11.2821 12.7196,9.28209 11.5,7.5C 18.8038,2.23484 26.1372,2.23484 33.5,7.5 Z"/></g>
<g><path style="opacity:1" fill="#e9f3fe" d="M 11.5,7.5 C 12.7196,9.28209 13.3862,11.2821 13.5,13.5C 18.9138,12.3207 24.4138,11.3207 30,10.5C 30.414,10.9574 30.914,11.2907 31.5,11.5C 32.3624,10.2342 33.0291,8.90082 33.5,7.5C 36.6059,9.59841 38.9393,12.2651 40.5,15.5C 40.5,16.1667 40.5,16.8333 40.5,17.5C 40.693,21.5662 40.3597,25.5662 39.5,29.5C 38.8501,29.1961 38.1835,28.8627 37.5,28.5C 36.8506,26.3759 36.0173,24.3759 35,22.5C 34.2419,20.2305 34.4086,18.0639 35.5,16C 32.4052,14.4661 29.4052,14.2995 26.5,15.5C 25.0991,18.7036 24.0991,22.0369 23.5,25.5C 22.8423,26.3984 22.1757,27.3984 21.5,28.5C 20.0476,27.0603 19.0476,25.3936 18.5,23.5C 19.1667,23.5 19.5,23.1667 19.5,22.5C 22.2624,19.8518 21.9291,17.5185 18.5,15.5C 17.1667,15.5 15.8333,15.5 14.5,15.5C 13.1667,15.5 11.8333,15.5 10.5,15.5C 10.9175,14.7784 11.5842,14.2784 12.5,14C 11.051,12.8978 9.7177,11.7311 8.5,10.5C 9.16667,9.16667 10.1667,8.16667 11.5,7.5 Z"/></g>
<g><path style="opacity:1" fill="#e4f1fe" d="M 26.5,15.5 C 29.4052,14.2995 32.4052,14.4661 35.5,16C 34.4086,18.0639 34.2419,20.2305 35,22.5C 36.0173,24.3759 36.8506,26.3759 37.5,28.5C 38.1835,28.8627 38.8501,29.1961 39.5,29.5C 38.8333,30.5 38.1667,31.5 37.5,32.5C 36.8333,32.5 36.1667,32.5 35.5,32.5C 35.5,31.5 35.5,30.5 35.5,29.5C 34.9347,25.4632 33.6013,21.7966 31.5,18.5C 31.5,17.5 31.5,16.5 31.5,15.5C 29.8333,15.5 28.1667,15.5 26.5,15.5 Z"/></g>
<g><path style="opacity:1" fill="#274176" d="M 39.5,10.5 C 43.0146,14.6913 44.0146,19.358 42.5,24.5C 42.6621,22.4727 42.4955,20.4727 42,18.5C 41.6174,17.944 41.1174,17.6107 40.5,17.5C 40.5,16.8333 40.5,16.1667 40.5,15.5C 40.3713,13.7839 40.038,12.1172 39.5,10.5 Z"/></g>
<g><path style="opacity:1" fill="#b5d4fb" d="M 13.5,21.5 C 13.5,20.8333 13.5,20.1667 13.5,19.5C 14.1834,17.8235 15.5168,17.1568 17.5,17.5C 17.5,18.8333 17.5,20.1667 17.5,21.5C 16.1667,21.5 14.8333,21.5 13.5,21.5 Z"/></g>
<g><path style="opacity:1" fill="#597ed8" d="M 18.5,15.5 C 21.9291,17.5185 22.2624,19.8518 19.5,22.5C 19.552,20.0971 19.2186,17.7638 18.5,15.5 Z"/></g>
<g><path style="opacity:1" fill="#3d6adb" d="M 26.5,15.5 C 28.1667,15.5 29.8333,15.5 31.5,15.5C 31.5,16.5 31.5,17.5 31.5,18.5C 31.1667,19.8333 30.8333,21.1667 30.5,22.5C 29.8485,21.9094 29.1818,21.2427 28.5,20.5C 28.1667,21.1667 27.8333,21.8333 27.5,22.5C 27.7472,23.7133 28.4138,24.38 29.5,24.5C 28.5525,25.9779 27.2191,26.9779 25.5,27.5C 25.5,27.8333 25.5,28.1667 25.5,28.5C 23.9519,28.1788 23.2852,27.1788 23.5,25.5C 24.0991,22.0369 25.0991,18.7036 26.5,15.5 Z"/></g>
<g><path style="opacity:1" fill="#edf4fe" d="M 9.5,29.5 C 9.16667,30.8333 8.83333,32.1667 8.5,33.5C 7.32627,32.4863 6.6596,31.153 6.5,29.5C 6.51109,27.4534 6.84442,25.4534 7.5,23.5C 4.73141,20.3688 5.39808,18.3688 9.5,17.5C 9.5,21.5 9.5,25.5 9.5,29.5 Z"/></g>
<g><path style="opacity:1" fill="#3566dd" d="M 14.5,15.5 C 15.8333,15.5 17.1667,15.5 18.5,15.5C 19.2186,17.7638 19.552,20.0971 19.5,22.5C 19.5,23.1667 19.1667,23.5 18.5,23.5C 16.4372,24.5493 14.4372,24.216 12.5,22.5C 12.6236,21.8933 12.9569,21.56 13.5,21.5C 14.8333,21.5 16.1667,21.5 17.5,21.5C 17.5,20.1667 17.5,18.8333 17.5,17.5C 15.5168,17.1568 14.1834,17.8235 13.5,19.5C 11.9519,19.1788 11.2852,18.1788 11.5,16.5C 12.791,16.7373 13.791,16.404 14.5,15.5 Z"/></g>
<g><path style="opacity:1" fill="#4570d9" d="M 31.5,18.5 C 33.6013,21.7966 34.9347,25.4632 35.5,29.5C 32.4127,27.983 29.0794,27.3163 25.5,27.5C 27.2191,26.9779 28.5525,25.9779 29.5,24.5C 30.3382,24.1583 30.6716,23.4916 30.5,22.5C 30.8333,21.1667 31.1667,19.8333 31.5,18.5 Z"/></g>
<g><path style="opacity:1" fill="#d9edfe" d="M 8.5,10.5 C 9.7177,11.7311 11.051,12.8978 12.5,14C 11.5842,14.2784 10.9175,14.7784 10.5,15.5C 10.5,20.1667 10.5,24.8333 10.5,29.5C 10.1667,29.5 9.83333,29.5 9.5,29.5C 9.5,25.5 9.5,21.5 9.5,17.5C 5.39808,18.3688 4.73141,20.3688 7.5,23.5C 6.84442,25.4534 6.51109,27.4534 6.5,29.5C 3.87581,24.2709 3.87581,18.9376 6.5,13.5C 7.16667,12.5 7.83333,11.5 8.5,10.5 Z"/></g>
<g><path style="opacity:1" fill="#3c69d3" d="M 10.5,15.5 C 11.8333,15.5 13.1667,15.5 14.5,15.5C 13.791,16.404 12.791,16.7373 11.5,16.5C 11.2852,18.1788 11.9519,19.1788 13.5,19.5C 13.5,20.1667 13.5,20.8333 13.5,21.5C 12.9569,21.56 12.6236,21.8933 12.5,22.5C 14.4372,24.216 16.4372,24.5493 18.5,23.5C 19.0476,25.3936 20.0476,27.0603 21.5,28.5C 22.1757,27.3984 22.8423,26.3984 23.5,25.5C 23.2852,27.1788 23.9519,28.1788 25.5,28.5C 23.0336,29.6341 20.367,29.8007 17.5,29C 14.5767,23.1606 13.2434,23.3273 13.5,29.5C 12.5,29.5 11.5,29.5 10.5,29.5C 10.5,24.8333 10.5,20.1667 10.5,15.5 Z"/></g>
<g><path style="opacity:1" fill="#9ec3fd" d="M 30.5,22.5 C 30.6716,23.4916 30.3382,24.1583 29.5,24.5C 28.4138,24.38 27.7472,23.7133 27.5,22.5C 27.8333,21.8333 28.1667,21.1667 28.5,20.5C 29.1818,21.2427 29.8485,21.9094 30.5,22.5 Z"/></g>
<g><path style="opacity:0.965" fill="#6385c1" d="M 4.5,13.5 C 5.16667,13.5 5.83333,13.5 6.5,13.5C 3.87581,18.9376 3.87581,24.2709 6.5,29.5C 6.6596,31.153 7.32627,32.4863 8.5,33.5C 8.5,33.8333 8.5,34.1667 8.5,34.5C 7.83333,34.5 7.16667,34.5 6.5,34.5C 2.21444,27.6894 1.54777,20.6894 4.5,13.5 Z"/></g>
<g><path style="opacity:1" fill="#e9f4fd" d="M 25.5,28.5 C 25.5,28.1667 25.5,27.8333 25.5,27.5C 29.0794,27.3163 32.4127,27.983 35.5,29.5C 35.5,30.5 35.5,31.5 35.5,32.5C 34.5637,33.9744 33.2303,34.9744 31.5,35.5C 31.0919,34.3569 30.4252,33.3569 29.5,32.5C 26.9607,33.1153 24.4607,33.7819 22,34.5C 20.4178,32.2888 18.2511,30.9554 15.5,30.5C 15.1667,31.1667 14.8333,31.8333 14.5,32.5C 13.6143,31.675 13.281,30.675 13.5,29.5C 13.2434,23.3273 14.5767,23.1606 17.5,29C 20.367,29.8007 23.0336,29.6341 25.5,28.5 Z"/></g>
<g><path style="opacity:1" fill="#edf7fc" d="M 9.5,29.5 C 9.83333,29.5 10.1667,29.5 10.5,29.5C 11.5,29.5 12.5,29.5 13.5,29.5C 13.281,30.675 13.6143,31.675 14.5,32.5C 14.8333,31.8333 15.1667,31.1667 15.5,30.5C 18.2511,30.9554 20.4178,32.2888 22,34.5C 24.4607,33.7819 26.9607,33.1153 29.5,32.5C 30.4252,33.3569 31.0919,34.3569 31.5,35.5C 29.8333,35.5 28.1667,35.5 26.5,35.5C 26.5,36.5 26.5,37.5 26.5,38.5C 20.8236,39.0697 15.4903,38.0697 10.5,35.5C 9.83333,35.1667 9.16667,34.8333 8.5,34.5C 8.5,34.1667 8.5,33.8333 8.5,33.5C 8.83333,32.1667 9.16667,30.8333 9.5,29.5 Z"/></g>
<g><path style="opacity:1" fill="#5777ba" d="M 40.5,17.5 C 41.1174,17.6107 41.6174,17.944 42,18.5C 42.4955,20.4727 42.6621,22.4727 42.5,24.5C 41.478,33.1871 36.8113,38.8537 28.5,41.5C 28.5,40.8333 28.5,40.1667 28.5,39.5C 32.3828,38.2819 35.3828,35.9485 37.5,32.5C 38.1667,31.5 38.8333,30.5 39.5,29.5C 40.3597,25.5662 40.693,21.5662 40.5,17.5 Z"/></g>
<g><path style="opacity:0.863" fill="#5276b7" d="M 6.5,34.5 C 7.16667,34.5 7.83333,34.5 8.5,34.5C 9.16667,34.8333 9.83333,35.1667 10.5,35.5C 15.5703,40.3729 21.5703,41.7062 28.5,39.5C 28.5,40.1667 28.5,40.8333 28.5,41.5C 22.2286,42.9366 16.2286,42.1033 10.5,39C 8.95862,37.6288 7.62529,36.1288 6.5,34.5 Z"/></g>
<g><path style="opacity:1" fill="#e0f2fe" d="M 35.5,32.5 C 36.1667,32.5 36.8333,32.5 37.5,32.5C 35.3828,35.9485 32.3828,38.2819 28.5,39.5C 21.5703,41.7062 15.5703,40.3729 10.5,35.5C 15.4903,38.0697 20.8236,39.0697 26.5,38.5C 26.5,37.5 26.5,36.5 26.5,35.5C 28.1667,35.5 29.8333,35.5 31.5,35.5C 33.2303,34.9744 34.5637,33.9744 35.5,32.5 Z"/></g>
</svg>
